<?xml version="1.0" encoding="utf-8"?>
<!-- Generator: Adobe Illustrator 25.2.0, SVG Export Plug-In . SVG Version: 6.00 Build 0)  -->
<svg version="1.1" xmlns="http://www.w3.org/2000/svg" xmlns:xlink="http://www.w3.org/1999/xlink" x="0px" y="0px"
	 viewBox="0 0 3000 3000" style="enable-background:new 0 0 3000 3000;" xml:space="preserve">
<style type="text/css">
	.st0{display:none;}
	.st1{display:inline;fill:#0C0C0C;}
	.st2{display:none;fill:#FFFFFF;}
	.st3{fill:#0A2948;}
	.st4{fill:#F1F2F2;stroke:#231F20;stroke-miterlimit:10;}
	.st5{fill:#16ACE3;}
</style>
<g id="Layer_2" class="st0">
	<rect x="3194.87" y="34.37" class="st1" width="2964.88" height="1127.75"/>
</g>
<g id="Layer_3">
	<rect x="0" y="0" class="st2" width="3000" height="3000"/>
	<g id="Layer_4">
	</g>
	<rect x="-82.17" y="-82.17" class="st3" width="3164.34" height="3164.34"/>
	<g>
		<g>
			<path class="st4" d="M377.22,2075.28c-58.22,0-103.65-32.31-103.65-107.01c0-68.65,40.05-107.01,103.65-107.01
				c39.71,0,65.62,14.13,78.07,21.87l-11.78,46.77h-18.51c-5.05-20.86-21.2-29.27-41.39-29.27c-33.99,0-51.15,20.53-51.15,67.64
				c0,47.11,17.16,67.64,51.49,67.64c22.55,0,36.01-11.1,41.06-29.95h18.51l11.78,47.45
				C436.78,2065.19,412.56,2075.28,377.22,2075.28z"/>
			<path class="st4" d="M556.25,2075.62c-51.82,0-83.46-25.91-83.46-80.76c0-54.51,31.63-80.76,83.46-80.76
				c51.49,0,83.46,26.25,83.46,80.76C639.7,2049.71,607.73,2075.62,556.25,2075.62z M556.25,1948.42
				c-20.19,0-29.28,11.78-29.28,46.44s9.09,46.44,29.28,46.44c19.85,0,29.28-11.78,29.28-46.44S576.1,1948.42,556.25,1948.42z"/>
			<path class="st4" d="M789.79,1979.71h-27.59c3.36-3.37,5.72-8.41,5.72-12.79c0-6.39-3.7-10.77-12.12-10.77
				c-8.08,0-16.15,5.38-24.23,13.8v58.89c0,11.44,2.36,15.82,16.15,15.82l-5.72,27.26h-73.02l-5.72-27.26
				c13.8,0,16.15-4.37,16.15-15.82v-53.17c0-19.18-2.02-27.59-20.19-27.59l5.72-22.21l54.52-15.82c3.03,5.05,7.4,15.48,10.1,28.27
				c12.79-13.12,33.65-22.88,50.14-22.88c20.19,0,28.27,11.44,28.27,23.56C807.96,1955.49,797.86,1973.32,789.79,1979.71z"/>
			<path class="st4" d="M999.44,2071.92h-59.9c-8.08-8.41-12.11-20.19-16.15-31.3c-6.06-16.49-9.76-31.3-23.89-31.3
				c-6.06,0-10.1,2.02-14.47,5.05l-5.38,3.7v10.77c0,11.44,2.36,15.82,16.15,15.82l-5.72,27.26h-73.02l-5.72-27.26
				c13.8,0,16.15-4.37,16.15-15.82v-142.68c0-19.18-2.36-26.92-16.15-26.92l5.38-22.88l69.99-11.1l6.39,22.55
				c-11.1,2.36-13.46,8.08-13.46,20.19v114.41l34.66-25.58c9.42-6.73,8.75-13.46-3.03-14.13l5.72-24.9h76.05l5.72,27.26
				c-14.47,0-20.86,2.02-31.3,9.42l-38.7,27.93c28.6,2.69,36.68,22.88,42.06,38.7c4.37,13.13,9.09,23.56,28.94,23.56h5.38
				L999.44,2071.92z"/>
			<path class="st4" d="M1096.02,2071.92h-74.03l-5.72-27.26c13.8,0,16.15-4.37,16.15-15.82v-55.19c0-18.84-2.36-26.92-16.15-26.92
				l5.38-22.55l71.34-11.1l6.06,22.55c-11.11,2.02-13.12,8.08-13.12,20.19v73.02c0,11.44,2.36,15.82,15.82,15.82L1096.02,2071.92z
				 M1058.33,1888.18c-15.14,0-27.59-12.11-27.59-27.26c0-15.14,12.45-27.6,27.59-27.6s27.26,12.45,27.26,27.6
				C1085.59,1876.07,1073.47,1888.18,1058.33,1888.18z"/>
			<path class="st4" d="M1308.02,2071.92h-73.7l-6.06-27.26c14.13,0,16.15-4.37,16.15-15.82v-58.89c0-12.79-6.73-18.17-19.85-18.17
				c-8.08,0-21.87,3.37-30.62,9.09v67.98c0,11.44,2.36,15.82,16.15,15.82l-5.72,27.26h-73.02l-5.72-27.26
				c13.8,0,16.15-4.37,16.15-15.82v-53.17c0-19.18-2.02-27.59-20.19-27.59l5.72-22.21l54.52-15.82c3.7,5.05,6.73,12.45,9.09,20.53
				c14.81-8.75,36.68-15.82,52.83-15.82c43.75,0,54.18,24.57,54.18,53.17v60.91c0,11.44,2.36,15.82,15.82,15.82L1308.02,2071.92z"/>
			<path class="st4" d="M1465.51,2077.3c-3.37-3.03-11.44-12.79-14.81-22.55c-10.1,12.45-30.29,20.86-50.14,20.86
				c-39.04,0-67.98-23.56-67.98-80.76c0-56.87,28.94-80.76,67.98-80.76c15.14,0,32.64,5.72,42.06,16.15v-44.08
				c0-19.18-3.03-26.92-17.16-26.92l5.38-22.88l70.33-11.1l6.39,22.55c-10.1,2.36-12.45,8.41-12.45,20.19v143.02
				c0,19.52,3.03,30.62,20.19,30.62v21.54L1465.51,2077.3z M1441.62,1977.7c0-15.82-11.44-26.92-27.93-26.92
				c-17.83,0-26.92,11.44-26.92,44.08c0,32.64,9.09,44.08,26.92,44.08c16.49,0,27.93-11.11,27.93-26.58V1977.7z"/>
			<path class="st4" d="M1670.45,2075.62c-17.83,0-29.61-7.74-35.67-18.17c-17.16,12.79-37.02,18.17-53.84,18.17
				c-34.32,0-52.16-18.51-52.16-44.08c0-37.02,37.02-53.84,95.23-53.84v-12.11c0-15.14-9.09-20.19-23.56-20.19
				c-18.17,0-26.25,6.06-32.64,21.2h-16.15l-9.09-41.06c5.38-2.35,30.96-11.44,64.27-11.44c44.08,0,68.99,16.15,68.99,49.13v68.31
				c0,10.1,5.38,13.8,14.13,13.8c3.7,0,7.4-1.01,11.1-2.69v26.58C1691.99,2073.26,1681.89,2075.62,1670.45,2075.62z
				 M1622.33,2003.61c-32.64,0-47.45,10.1-47.45,25.24c0,10.77,6.73,16.49,17.83,16.49c9.76,0,20.86-4.71,29.61-12.11V2003.61z"/>
			<path class="st4" d="M1791.26,2071.92h-73.7l-6.06-27.26c13.8,0,16.15-4.37,16.15-15.82v-142.68c0-19.18-2.36-26.92-16.15-26.92
				l5.72-22.88l71-11.1l6.39,22.55c-11.11,2.36-13.46,8.08-13.46,20.19v160.85c0,11.44,2.36,15.82,16.15,15.82L1791.26,2071.92z"/>
			<path class="st4" d="M1962.21,2006.63h-92.54c0,21.87,13.8,33.32,41.73,33.32c18.51,0,37.69-5.72,54.18-14.81v29.61
				c-10.77,10.43-33.31,20.86-64.61,20.86c-47.11,0-83.46-21.54-83.46-80.76c0-55.86,31.97-80.76,81.44-80.76
				c41.39,0,69.32,22.21,69.32,55.86C1968.26,1985.43,1965.24,2000.24,1962.21,2006.63z M1899.95,1945.39
				c-13.8,0-27.59,6.73-29.95,31.63h54.52c0.67-2.69,1.68-6.73,1.68-10.43C1926.2,1952.79,1917.45,1945.39,1899.95,1945.39z"/>
			<path class="st4" d="M2265.74,2071.92h-46.1c-5.72-2.02-11.78-5.05-18.17-9.42c-16.15,8.41-35,13.13-54.51,13.13
				c-56.53,0-85.14-28.27-85.14-64.61c0-27.59,17.16-47.45,43.75-61.25c-11.1-14.13-18.84-28.6-18.84-41.39
				c0-24.23,16.15-47.45,68.65-47.45c26.25,0,49.8,9.42,60.24,14.47l-9.76,41.05h-18.17c-4.38-18.17-11.44-26.25-27.93-26.25
				c-12.11,0-18.17,8.41-18.17,16.15c0,8.75,5.05,17.16,13.8,28.27l58.22,73.02c0.67,1.01,1.35,1.68,2.36,2.69
				c4.37-8.41,6.73-17.5,6.73-29.61c0-9.42-3.37-13.8-18.17-13.8l5.72-24.57h55.19l5.72,24.57c-14.81,0-17.5,4.37-17.5,13.8
				c0,21.2-6.39,38.03-16.83,52.16c12.79,12.12,17.5,14.81,36.01,14.81L2265.74,2071.92z M2166.13,2028.85l-42.06-54.85
				c-8.75,9.42-13.12,20.86-13.12,32.98c0,21.87,18.51,37.69,48.46,37.69c6.06,0,12.11-1.01,17.83-2.69
				C2173.54,2037.93,2169.5,2033.56,2166.13,2028.85z"/>
			<path class="st4" d="M2463.94,2075.28c-58.22,0-103.65-32.31-103.65-107.01c0-68.65,40.05-107.01,103.65-107.01
				c39.71,0,65.62,14.13,78.07,21.87l-11.78,46.77h-18.51c-5.05-20.86-21.2-29.27-41.39-29.27c-33.99,0-51.15,20.53-51.15,67.64
				c0,47.11,17.16,67.64,51.49,67.64c22.55,0,36.01-11.1,41.05-29.95h18.51l11.78,47.45
				C2523.51,2065.19,2499.28,2075.28,2463.94,2075.28z"/>
			<path class="st4" d="M2642.97,2075.62c-51.82,0-83.46-25.91-83.46-80.76c0-54.51,31.63-80.76,83.46-80.76
				c51.49,0,83.46,26.25,83.46,80.76C2726.43,2049.71,2694.46,2075.62,2642.97,2075.62z M2642.97,1948.42
				c-20.19,0-29.28,11.78-29.28,46.44s9.09,46.44,29.28,46.44c19.85,0,29.28-11.78,29.28-46.44S2662.82,1948.42,2642.97,1948.42z"/>
		</g>
		<g>
			<path class="st5" d="M1866.3,1174.05l-8.39,16.06l-45.77,87.58l-6.07,11.64h-0.05l-8.03,15.45l-2.99,5.66l-42.01,80.37
				l38.15,36.86l59,56.94c25.69-51.9,40.16-110.54,40.16-173.1C1890.29,1262.81,1881.8,1216.57,1866.3,1174.05z"/>
			<path class="st4" d="M1677.89,1369.12l11.78-22.46l3.2-6.07l0.19,0.1l52.22-99.92l2.99-5.69l8.07-15.42l26.54-50.78l0.81-1.58
				l24.51-46.86l15-28.69c-13.72-21.04-30.35-40.93-49.42-59.17c-71.89-68.81-174.18-109.88-273.61-109.88
				c-11.41,0-23.07,0.49-34.64,1.45l-0.35,0.07l-0.39,0.04c-97.19,8.39-186.73,51.55-252.16,121.59
				c-32.47,34.75-57.84,74.73-75.41,118.84c-18.26,45.81-27.52,94.74-27.52,145.38c0,104.4,41.08,201.96,115.67,274.69
				c35.99,35.1,77.9,62.63,124.57,81.86c48.02,19.78,98.91,29.81,151.26,29.81c25.89,0,51.89-2.68,77.25-7.95
				c0.54-0.14,1.02-0.23,1.42-0.3c44.66-9.49,87.11-26.87,126.21-51.68c37.6-23.86,71.09-53.93,99.59-89.45l-45.74-44.17h-0.28
				l-2.05-2.05l-0.89-0.89l-4.53-4.39l-0.05-0.04l-0.04-0.04l-0.37-0.39l-25.93-25.19l-36.41-35.48l-26.56-25.84l-3.75-3.64
				l2.43-4.64L1677.89,1369.12z M1469.49,1313.07l4.29-1.77l3.31,3.26l101.11,99.41l3.73,3.68l-2.45,4.62
				c-31.21,58.5-60.73,82.38-101.9,82.38c-48.84,0-91.69-42.57-91.69-91.08C1385.89,1372.27,1417.13,1334.7,1469.49,1313.07z
				 M1442.88,1167.35c0-28.17,27.41-52.88,58.7-52.88c35.1,0,60.59,23.07,60.59,54.84c0,32.1-18.08,50.99-66.73,69.71l-3.97,1.52
				l-3.19-2.82C1456.89,1209.92,1442.88,1188.22,1442.88,1167.35z M1544.91,1292.6l-7.07-6.97l8.93-4.31
				c48.94-23.68,78.18-63.88,78.18-107.48c0-64.79-55.91-119.51-122.08-119.51c-67.68,0-122.75,50.98-122.75,113.63
				c0,32.89,12.17,59.38,42,91.47l6.25,6.72l-8.12,4.25c-64.44,33.77-97.12,81.05-97.12,140.53c0,84.83,71.05,153.84,158.39,153.84
				c60.2,0,105.71-29.95,143.21-94.25l4.52-7.76l6.41,6.27l79.6,77.71l5.5,5.36l-5.83,4.97l-0.58,0.51l-0.47,0.4
				c-2.01,1.79-4.01,3.48-6.04,5.2l-0.16,0.12l-0.07,0.05c-0.16,0.14-0.3,0.26-0.46,0.39c-1.37,1.14-2.54,2.12-3.76,3.1
				c-1.03,0.86-2.03,1.66-2.99,2.42c-1.7,1.38-3.41,2.73-5.13,4.01c-57.87,44.59-125.34,68.17-195.06,68.17
				c-89.61,0-177.77-41.03-241.87-112.58l-0.44-0.42l-0.14-0.14l-0.12-0.16c-55.26-61.99-85.71-139.06-85.71-217.03
				c0-150.51,110.84-290.34,257.82-325.27c2.77-0.63,4.94-1.12,6.88-1.52c2.31-0.51,4.73-1,7.09-1.42c2.28-0.46,4.69-0.88,7.23-1.28
				l0.09-0.02c2.54-0.4,5.15-0.82,7.81-1.19c13.5-1.82,27.06-2.73,40.33-2.73c36.88,0,73.59,6.34,109.09,18.87
				c0.49,0.11,0.95,0.28,1.4,0.49c54.27,19.36,102.13,52.04,138.41,94.51l3.13,3.64l-2.29,4.24l-1.02,1.86l-65.21,124.87l-1.96,3.76
				h-0.28l-2.07,3.97l-38,73.17l-5.67,10.84l-17.33,33.45l-4.38,8.42l-6.76-6.67L1544.91,1292.6z"/>
		</g>
	</g>
</g>
</svg>
